<svg xmlns="http://www.w3.org/2000/svg" xmlns:xlink="http://www.w3.org/1999/xlink" xmlns:s="https://github.com/nturley/netlistsvg" width="977" height="601" overflow="visible" viewBox="-20 -20 977 601">
  <style>svg {
    fill:none;
  }
  text {
    fill:#cbd5e1;
    stroke:none;
    font-size:11px;
    font-weight:600;
    font-family: "JetBrains Mono","Fira Code","Cascadia Code","SF Mono",Menlo,"Courier New",monospace;
  }
  g[id^="cell_"] rect,
  g[id^="cell_"] circle,
  g[id^="cell_"] path,
  rect[class^="cell_"],
  circle[class^="cell_"],
  path[class^="cell_"] {
    fill:#1e293b;
    stroke:#5ad0ff;
    stroke-width:1.5;
  }
  g[id^="cell_"] rect[class^="cell_"] {
    rx:6;
    ry:6;
  }
  g[id^="cell_"] circle[class^="cell_"] {
    stroke:#5ad0ff;
    stroke-width:1.5;
  }
  text[class*="cell_"] {
    fill:#e2e8f0;
    stroke:none;
    font-size:11px;
    font-family: "JetBrains Mono","Fira Code","Cascadia Code","SF Mono",Menlo,"Courier New",monospace;
    font-weight:600;
  }
  .nodelabel {
    text-anchor: middle;
  }
  .inputPortLabel {
    text-anchor: end;
  }
  .splitjoinBody {
    fill:#5ad0ff;
  }
  line[class^="net_"] {
    stroke:#94a3b8;
    stroke-width:1.4;
    fill:none;
  }
  line[class*=","] {
    stroke:#5ad0ff;
    stroke-width:2.2;
  }
  circle[class^="net_"] {
    fill:#5ad0ff;
    stroke:none;
  }
  g.__veri_in__ > path[class^="cell_"] {
    fill:#0f172a;
    stroke:#5ad0ff;
    stroke-width:1.5;
  }
  g.__veri_out__ > path[class^="cell_"] {
    fill:#0f172a;
    stroke:#f0abfc;
    stroke-width:1.5;
  }</style>
  <g s:type="add" transform="translate(885,342.5)" s:width="25" s:height="25" id="cell_$add$/home/rabin/projects/npu/src/PE.v:40$3">
    <s:alias val="$add"/>
    <circle r="12.5" cx="12.5" cy="12.5" class="cell_$add$/home/rabin/projects/npu/src/PE.v:40$3"/>
    <line x1="7.5" x2="17.5" y1="12.5" y2="12.5" class="cell_$add$/home/rabin/projects/npu/src/PE.v:40$3"/>
    <line x1="12.5" x2="12.5" y1="7.5" y2="17.5" class="cell_$add$/home/rabin/projects/npu/src/PE.v:40$3"/>
    <g s:x="3" s:y="5" s:pid="A"/>
    <g s:x="3" s:y="20" s:pid="B"/>
    <g s:x="25" s:y="12.5" s:pid="Y"/>
  </g>
  <g s:type="generic" transform="translate(681,486)" s:width="30" s:height="40" id="cell_$auto$ff.cc:266:slice$32">
    <text x="15" y="-4" class="nodelabel cell_$auto$ff.cc:266:slice$32" s:attribute="ref">$sdff</text>
    <rect width="30" height="60" s:generic="body" class="cell_$auto$ff.cc:266:slice$32"/>
    <g transform="translate(0,10)" s:x="0" s:y="10" s:pid="in0" id="port_$auto$ff.cc:266:slice$32~CLK">
      <text x="-3" y="-4" class="inputPortLabel cell_$auto$ff.cc:266:slice$32">CLK</text>
    </g>
    <g transform="translate(0,30)" s:x="0" s:y="10" s:pid="in0" id="port_$auto$ff.cc:266:slice$32~D">
      <text x="-3" y="-4" class="inputPortLabel cell_$auto$ff.cc:266:slice$32">D</text>
    </g>
    <g transform="translate(0,50)" s:x="0" s:y="10" s:pid="in0" id="port_$auto$ff.cc:266:slice$32~SRST">
      <text x="-3" y="-4" class="inputPortLabel cell_$auto$ff.cc:266:slice$32">SRST</text>
    </g>
    <g transform="translate(30,10)" s:x="30" s:y="10" s:pid="out0" id="port_$auto$ff.cc:266:slice$32~Q">
      <text x="5" y="-4" class="cell_$auto$ff.cc:266:slice$32">Q</text>
    </g>
  </g>
  <g s:type="generic" transform="translate(681,178.5)" s:width="30" s:height="40" id="cell_$auto$ff.cc:266:slice$33">
    <text x="15" y="-4" class="nodelabel cell_$auto$ff.cc:266:slice$33" s:attribute="ref">$sdff</text>
    <rect width="30" height="60" s:generic="body" class="cell_$auto$ff.cc:266:slice$33"/>
    <g transform="translate(0,10)" s:x="0" s:y="10" s:pid="in0" id="port_$auto$ff.cc:266:slice$33~CLK">
      <text x="-3" y="-4" class="inputPortLabel cell_$auto$ff.cc:266:slice$33">CLK</text>
    </g>
    <g transform="translate(0,30)" s:x="0" s:y="10" s:pid="in0" id="port_$auto$ff.cc:266:slice$33~D">
      <text x="-3" y="-4" class="inputPortLabel cell_$auto$ff.cc:266:slice$33">D</text>
    </g>
    <g transform="translate(0,50)" s:x="0" s:y="10" s:pid="in0" id="port_$auto$ff.cc:266:slice$33~SRST">
      <text x="-3" y="-4" class="inputPortLabel cell_$auto$ff.cc:266:slice$33">SRST</text>
    </g>
    <g transform="translate(30,10)" s:x="30" s:y="10" s:pid="out0" id="port_$auto$ff.cc:266:slice$33~Q">
      <text x="5" y="-4" class="cell_$auto$ff.cc:266:slice$33">Q</text>
    </g>
  </g>
  <g s:type="generic" transform="translate(681,65.5)" s:width="30" s:height="40" id="cell_$auto$ff.cc:266:slice$34">
    <text x="15" y="-4" class="nodelabel cell_$auto$ff.cc:266:slice$34" s:attribute="ref">$sdff</text>
    <rect width="30" height="60" s:generic="body" class="cell_$auto$ff.cc:266:slice$34"/>
    <g transform="translate(0,10)" s:x="0" s:y="10" s:pid="in0" id="port_$auto$ff.cc:266:slice$34~CLK">
      <text x="-3" y="-4" class="inputPortLabel cell_$auto$ff.cc:266:slice$34">CLK</text>
    </g>
    <g transform="translate(0,30)" s:x="0" s:y="10" s:pid="in0" id="port_$auto$ff.cc:266:slice$34~D">
      <text x="-3" y="-4" class="inputPortLabel cell_$auto$ff.cc:266:slice$34">D</text>
    </g>
    <g transform="translate(0,50)" s:x="0" s:y="10" s:pid="in0" id="port_$auto$ff.cc:266:slice$34~SRST">
      <text x="-3" y="-4" class="inputPortLabel cell_$auto$ff.cc:266:slice$34">SRST</text>
    </g>
    <g transform="translate(30,10)" s:x="30" s:y="10" s:pid="out0" id="port_$auto$ff.cc:266:slice$34~Q">
      <text x="5" y="-4" class="cell_$auto$ff.cc:266:slice$34">Q</text>
    </g>
  </g>
  <g s:type="generic" transform="translate(448.5,43)" s:width="30" s:height="40" id="cell_$auto$ff.cc:266:slice$35">
    <text x="15" y="-4" class="nodelabel cell_$auto$ff.cc:266:slice$35" s:attribute="ref">$sdff</text>
    <rect width="30" height="60" s:generic="body" class="cell_$auto$ff.cc:266:slice$35"/>
    <g transform="translate(0,10)" s:x="0" s:y="10" s:pid="in0" id="port_$auto$ff.cc:266:slice$35~CLK">
      <text x="-3" y="-4" class="inputPortLabel cell_$auto$ff.cc:266:slice$35">CLK</text>
    </g>
    <g transform="translate(0,30)" s:x="0" s:y="10" s:pid="in0" id="port_$auto$ff.cc:266:slice$35~D">
      <text x="-3" y="-4" class="inputPortLabel cell_$auto$ff.cc:266:slice$35">D</text>
    </g>
    <g transform="translate(0,50)" s:x="0" s:y="10" s:pid="in0" id="port_$auto$ff.cc:266:slice$35~SRST">
      <text x="-3" y="-4" class="inputPortLabel cell_$auto$ff.cc:266:slice$35">SRST</text>
    </g>
    <g transform="translate(30,10)" s:x="30" s:y="10" s:pid="out0" id="port_$auto$ff.cc:266:slice$35~Q">
      <text x="5" y="-4" class="cell_$auto$ff.cc:266:slice$35">Q</text>
    </g>
  </g>
  <g s:type="generic" transform="translate(127,423.5)" s:width="30" s:height="40" id="cell_$auto$ff.cc:266:slice$36">
    <text x="15" y="-4" class="nodelabel cell_$auto$ff.cc:266:slice$36" s:attribute="ref">$sdff</text>
    <rect width="30" height="60" s:generic="body" class="cell_$auto$ff.cc:266:slice$36"/>
    <g transform="translate(0,10)" s:x="0" s:y="10" s:pid="in0" id="port_$auto$ff.cc:266:slice$36~CLK">
      <text x="-3" y="-4" class="inputPortLabel cell_$auto$ff.cc:266:slice$36">CLK</text>
    </g>
    <g transform="translate(0,30)" s:x="0" s:y="10" s:pid="in0" id="port_$auto$ff.cc:266:slice$36~D">
      <text x="-3" y="-4" class="inputPortLabel cell_$auto$ff.cc:266:slice$36">D</text>
    </g>
    <g transform="translate(0,50)" s:x="0" s:y="10" s:pid="in0" id="port_$auto$ff.cc:266:slice$36~SRST">
      <text x="-3" y="-4" class="inputPortLabel cell_$auto$ff.cc:266:slice$36">SRST</text>
    </g>
    <g transform="translate(30,10)" s:x="30" s:y="10" s:pid="out0" id="port_$auto$ff.cc:266:slice$36~Q">
      <text x="5" y="-4" class="cell_$auto$ff.cc:266:slice$36">Q</text>
    </g>
  </g>
  <g s:type="generic" transform="translate(127,329.5)" s:width="30" s:height="40" id="cell_$auto$ff.cc:266:slice$37">
    <text x="15" y="-4" class="nodelabel cell_$auto$ff.cc:266:slice$37" s:attribute="ref">$sdff</text>
    <rect width="30" height="60" s:generic="body" class="cell_$auto$ff.cc:266:slice$37"/>
    <g transform="translate(0,10)" s:x="0" s:y="10" s:pid="in0" id="port_$auto$ff.cc:266:slice$37~CLK">
      <text x="-3" y="-4" class="inputPortLabel cell_$auto$ff.cc:266:slice$37">CLK</text>
    </g>
    <g transform="translate(0,30)" s:x="0" s:y="10" s:pid="in0" id="port_$auto$ff.cc:266:slice$37~D">
      <text x="-3" y="-4" class="inputPortLabel cell_$auto$ff.cc:266:slice$37">D</text>
    </g>
    <g transform="translate(0,50)" s:x="0" s:y="10" s:pid="in0" id="port_$auto$ff.cc:266:slice$37~SRST">
      <text x="-3" y="-4" class="inputPortLabel cell_$auto$ff.cc:266:slice$37">SRST</text>
    </g>
    <g transform="translate(30,10)" s:x="30" s:y="10" s:pid="out0" id="port_$auto$ff.cc:266:slice$37~Q">
      <text x="5" y="-4" class="cell_$auto$ff.cc:266:slice$37">Q</text>
    </g>
  </g>
  <g s:type="generic" transform="translate(681,352)" s:width="30" s:height="40" id="cell_$auto$ff.cc:266:slice$38">
    <text x="15" y="-4" class="nodelabel cell_$auto$ff.cc:266:slice$38" s:attribute="ref">$sdff</text>
    <rect width="30" height="60" s:generic="body" class="cell_$auto$ff.cc:266:slice$38"/>
    <g transform="translate(0,10)" s:x="0" s:y="10" s:pid="in0" id="port_$auto$ff.cc:266:slice$38~CLK">
      <text x="-3" y="-4" class="inputPortLabel cell_$auto$ff.cc:266:slice$38">CLK</text>
    </g>
    <g transform="translate(0,30)" s:x="0" s:y="10" s:pid="in0" id="port_$auto$ff.cc:266:slice$38~D">
      <text x="-3" y="-4" class="inputPortLabel cell_$auto$ff.cc:266:slice$38">D</text>
    </g>
    <g transform="translate(0,50)" s:x="0" s:y="10" s:pid="in0" id="port_$auto$ff.cc:266:slice$38~SRST">
      <text x="-3" y="-4" class="inputPortLabel cell_$auto$ff.cc:266:slice$38">SRST</text>
    </g>
    <g transform="translate(30,10)" s:x="30" s:y="10" s:pid="out0" id="port_$auto$ff.cc:266:slice$38~Q">
      <text x="5" y="-4" class="cell_$auto$ff.cc:266:slice$38">Q</text>
    </g>
  </g>
  <g s:type="generic" transform="translate(338,309.5)" s:width="30" s:height="40" id="cell_$mul$/home/rabin/projects/npu/src/PE.v:37$2">
    <text x="15" y="-4" class="nodelabel cell_$mul$/home/rabin/projects/npu/src/PE.v:37$2" s:attribute="ref">$mul</text>
    <rect width="30" height="40" s:generic="body" class="cell_$mul$/home/rabin/projects/npu/src/PE.v:37$2"/>
    <g transform="translate(0,10)" s:x="0" s:y="10" s:pid="in0" id="port_$mul$/home/rabin/projects/npu/src/PE.v:37$2~A">
      <text x="-3" y="-4" class="inputPortLabel cell_$mul$/home/rabin/projects/npu/src/PE.v:37$2">A</text>
    </g>
    <g transform="translate(0,30)" s:x="0" s:y="10" s:pid="in0" id="port_$mul$/home/rabin/projects/npu/src/PE.v:37$2~B">
      <text x="-3" y="-4" class="inputPortLabel cell_$mul$/home/rabin/projects/npu/src/PE.v:37$2">B</text>
    </g>
    <g transform="translate(30,10)" s:x="30" s:y="10" s:pid="out0" id="port_$mul$/home/rabin/projects/npu/src/PE.v:37$2~Y">
      <text x="5" y="-4" class="cell_$mul$/home/rabin/projects/npu/src/PE.v:37$2">Y</text>
    </g>
  </g>
  <g s:type="inputExt" class="__veri_in__" transform="translate(12,230)" s:width="30" s:height="20" id="cell_clk">
    <text x="15" y="-4" class="nodelabel cell_clk" s:attribute="ref">clk</text>
    <s:alias val="$_inputExt_"/>
    <path d="M0,0 L0,20 L15,20 L30,10 L15,0 Z" class="cell_clk"/>
    <g s:x="28" s:y="10" s:pid="Y"/>
  </g>
  <g s:type="inputExt" class="__veri_in__" transform="translate(12,370)" s:width="30" s:height="20" id="cell_rst">
    <text x="15" y="-4" class="nodelabel cell_rst" s:attribute="ref">rst</text>
    <s:alias val="$_inputExt_"/>
    <path d="M0,0 L0,20 L15,20 L30,10 L15,0 Z" class="cell_rst"/>
    <g s:x="28" s:y="10" s:pid="Y"/>
  </g>
  <g s:type="inputExt" class="__veri_in__" transform="translate(12,444)" s:width="30" s:height="20" id="cell_in_x">
    <text x="15" y="-4" class="nodelabel cell_in_x" s:attribute="ref">in_x</text>
    <s:alias val="$_inputExt_"/>
    <path d="M0,0 L0,20 L15,20 L30,10 L15,0 Z" class="cell_in_x"/>
    <g s:x="28" s:y="10" s:pid="Y"/>
  </g>
  <g s:type="inputExt" class="__veri_in__" transform="translate(12,300)" s:width="30" s:height="20" id="cell_in_y">
    <text x="15" y="-4" class="nodelabel cell_in_y" s:attribute="ref">in_y</text>
    <s:alias val="$_inputExt_"/>
    <path d="M0,0 L0,20 L15,20 L30,10 L15,0 Z" class="cell_in_y"/>
    <g s:x="28" s:y="10" s:pid="Y"/>
  </g>
  <g s:type="outputExt" class="__veri_out__" transform="translate(885,486.5)" s:width="30" s:height="20" id="cell_out_x">
    <text x="15" y="-4" class="nodelabel cell_out_x" s:attribute="ref">out_x</text>
    <s:alias val="$_outputExt_"/>
    <path d="M30,0 L30,20 L15,20 L0,10 L15,0 Z" class="cell_out_x"/>
    <g s:x="0" s:y="10" s:pid="A"/>
  </g>
  <g s:type="outputExt" class="__veri_out__" transform="translate(885,179)" s:width="30" s:height="20" id="cell_out_y">
    <text x="15" y="-4" class="nodelabel cell_out_y" s:attribute="ref">out_y</text>
    <s:alias val="$_outputExt_"/>
    <path d="M30,0 L30,20 L15,20 L0,10 L15,0 Z" class="cell_out_y"/>
    <g s:x="0" s:y="10" s:pid="A"/>
  </g>
  <g s:type="outputExt" class="__veri_out__" transform="translate(885,66)" s:width="30" s:height="20" id="cell_out_c">
    <text x="15" y="-4" class="nodelabel cell_out_c" s:attribute="ref">out_c</text>
    <s:alias val="$_outputExt_"/>
    <path d="M30,0 L30,20 L15,20 L0,10 L15,0 Z" class="cell_out_c"/>
    <g s:x="0" s:y="10" s:pid="A"/>
  </g>
  <line x1="479.5" x2="626" y1="53.5" y2="53.5" class="net_108,109,110,111,112,113,114,115,116,117,118,119,120,121,122,123,124,125,126,127,128,129,130,131,132,133,134,135,136,137,138,139,140,141,142,143,144,145,146,147"/>
  <line x1="626" x2="626" y1="53.5" y2="331" class="net_108,109,110,111,112,113,114,115,116,117,118,119,120,121,122,123,124,125,126,127,128,129,130,131,132,133,134,135,136,137,138,139,140,141,142,143,144,145,146,147"/>
  <line x1="626" x2="835" y1="331" y2="331" class="net_108,109,110,111,112,113,114,115,116,117,118,119,120,121,122,123,124,125,126,127,128,129,130,131,132,133,134,135,136,137,138,139,140,141,142,143,144,145,146,147"/>
  <line x1="835" x2="835" y1="331" y2="347.5" class="net_108,109,110,111,112,113,114,115,116,117,118,119,120,121,122,123,124,125,126,127,128,129,130,131,132,133,134,135,136,137,138,139,140,141,142,143,144,145,146,147"/>
  <line x1="835" x2="888" y1="347.5" y2="347.5" class="net_108,109,110,111,112,113,114,115,116,117,118,119,120,121,122,123,124,125,126,127,128,129,130,131,132,133,134,135,136,137,138,139,140,141,142,143,144,145,146,147"/>
  <line x1="479.5" x2="626" y1="53.5" y2="53.5" class="net_108,109,110,111,112,113,114,115,116,117,118,119,120,121,122,123,124,125,126,127,128,129,130,131,132,133,134,135,136,137,138,139,140,141,142,143,144,145,146,147"/>
  <line x1="626" x2="626" y1="53.5" y2="96" class="net_108,109,110,111,112,113,114,115,116,117,118,119,120,121,122,123,124,125,126,127,128,129,130,131,132,133,134,135,136,137,138,139,140,141,142,143,144,145,146,147"/>
  <circle cx="626" cy="96" r="2" class="net_108,109,110,111,112,113,114,115,116,117,118,119,120,121,122,123,124,125,126,127,128,129,130,131,132,133,134,135,136,137,138,139,140,141,142,143,144,145,146,147"/>
  <line x1="626" x2="681" y1="96" y2="96" class="net_108,109,110,111,112,113,114,115,116,117,118,119,120,121,122,123,124,125,126,127,128,129,130,131,132,133,134,135,136,137,138,139,140,141,142,143,144,145,146,147"/>
  <line x1="712" x2="888" y1="362.5" y2="362.5" class="net_148,149,150,151,152,153,154,155,156,157,158,159,160,161,162,163,164,165,166,167,168,169,170,171,172,173,174,175,176,177,178,179"/>
  <line x1="40" x2="72" y1="240" y2="240" class="net_2"/>
  <line x1="72" x2="72" y1="240" y2="496.5" class="net_2"/>
  <circle cx="72" cy="240" r="2" class="net_2"/>
  <line x1="72" x2="681" y1="496.5" y2="496.5" class="net_2"/>
  <line x1="40" x2="72" y1="240" y2="240" class="net_2"/>
  <line x1="72" x2="72" y1="240" y2="189" class="net_2"/>
  <circle cx="72" cy="189" r="2" class="net_2"/>
  <line x1="72" x2="681" y1="189" y2="189" class="net_2"/>
  <line x1="40" x2="72" y1="240" y2="240" class="net_2"/>
  <line x1="72" x2="72" y1="240" y2="53.5" class="net_2"/>
  <line x1="72" x2="291" y1="53.5" y2="53.5" class="net_2"/>
  <line x1="291" x2="291" y1="53.5" y2="22" class="net_2"/>
  <line x1="291" x2="636" y1="22" y2="22" class="net_2"/>
  <line x1="636" x2="636" y1="22" y2="76" class="net_2"/>
  <circle cx="291" cy="53.5" r="2" class="net_2"/>
  <line x1="636" x2="681" y1="76" y2="76" class="net_2"/>
  <line x1="40" x2="72" y1="240" y2="240" class="net_2"/>
  <line x1="72" x2="72" y1="240" y2="53.5" class="net_2"/>
  <line x1="72" x2="448.5" y1="53.5" y2="53.5" class="net_2"/>
  <line x1="40" x2="72" y1="240" y2="240" class="net_2"/>
  <line x1="72" x2="72" y1="240" y2="434" class="net_2"/>
  <circle cx="72" cy="434" r="2" class="net_2"/>
  <line x1="72" x2="127" y1="434" y2="434" class="net_2"/>
  <line x1="40" x2="72" y1="240" y2="240" class="net_2"/>
  <line x1="72" x2="72" y1="240" y2="340" class="net_2"/>
  <circle cx="72" cy="340" r="2" class="net_2"/>
  <line x1="72" x2="127" y1="340" y2="340" class="net_2"/>
  <line x1="40" x2="616" y1="240" y2="240" class="net_2"/>
  <line x1="616" x2="616" y1="240" y2="362.5" class="net_2"/>
  <line x1="616" x2="681" y1="362.5" y2="362.5" class="net_2"/>
  <line x1="158" x2="291" y1="434" y2="434" class="net_220,221,222,223,224,225,226,227,228,229,230,231,232,233,234,235"/>
  <line x1="291" x2="291" y1="434" y2="516.5" class="net_220,221,222,223,224,225,226,227,228,229,230,231,232,233,234,235"/>
  <circle cx="291" cy="434" r="2" class="net_220,221,222,223,224,225,226,227,228,229,230,231,232,233,234,235"/>
  <line x1="291" x2="681" y1="516.5" y2="516.5" class="net_220,221,222,223,224,225,226,227,228,229,230,231,232,233,234,235"/>
  <line x1="158" x2="291" y1="434" y2="434" class="net_220,221,222,223,224,225,226,227,228,229,230,231,232,233,234,235"/>
  <line x1="291" x2="291" y1="434" y2="320" class="net_220,221,222,223,224,225,226,227,228,229,230,231,232,233,234,235"/>
  <line x1="291" x2="338" y1="320" y2="320" class="net_220,221,222,223,224,225,226,227,228,229,230,231,232,233,234,235"/>
  <line x1="40" x2="62" y1="380" y2="380" class="net_3"/>
  <line x1="62" x2="62" y1="380" y2="536.5" class="net_3"/>
  <circle cx="62" cy="380" r="2" class="net_3"/>
  <line x1="62" x2="681" y1="536.5" y2="536.5" class="net_3"/>
  <line x1="40" x2="62" y1="380" y2="380" class="net_3"/>
  <line x1="62" x2="62" y1="380" y2="229" class="net_3"/>
  <circle cx="62" cy="229" r="2" class="net_3"/>
  <line x1="62" x2="681" y1="229" y2="229" class="net_3"/>
  <line x1="40" x2="62" y1="380" y2="380" class="net_3"/>
  <line x1="62" x2="62" y1="380" y2="116" class="net_3"/>
  <line x1="62" x2="681" y1="116" y2="116" class="net_3"/>
  <line x1="40" x2="62" y1="380" y2="380" class="net_3"/>
  <line x1="62" x2="62" y1="380" y2="116" class="net_3"/>
  <line x1="62" x2="281" y1="116" y2="116" class="net_3"/>
  <line x1="281" x2="281" y1="116" y2="93.5" class="net_3"/>
  <circle cx="281" cy="116" r="2" class="net_3"/>
  <line x1="281" x2="448.5" y1="93.5" y2="93.5" class="net_3"/>
  <line x1="40" x2="62" y1="380" y2="380" class="net_3"/>
  <line x1="62" x2="62" y1="380" y2="474" class="net_3"/>
  <circle cx="62" cy="474" r="2" class="net_3"/>
  <line x1="62" x2="127" y1="474" y2="474" class="net_3"/>
  <line x1="40" x2="127" y1="380" y2="380" class="net_3"/>
  <line x1="40" x2="62" y1="380" y2="380" class="net_3"/>
  <line x1="62" x2="62" y1="380" y2="402.5" class="net_3"/>
  <circle cx="62" cy="402.5" r="2" class="net_3"/>
  <line x1="62" x2="681" y1="402.5" y2="402.5" class="net_3"/>
  <line x1="158" x2="281" y1="340" y2="340" class="net_236,237,238,239,240,241,242,243,244,245,246,247,248,249,250,251"/>
  <line x1="281" x2="281" y1="340" y2="209" class="net_236,237,238,239,240,241,242,243,244,245,246,247,248,249,250,251"/>
  <circle cx="281" cy="340" r="2" class="net_236,237,238,239,240,241,242,243,244,245,246,247,248,249,250,251"/>
  <line x1="281" x2="681" y1="209" y2="209" class="net_236,237,238,239,240,241,242,243,244,245,246,247,248,249,250,251"/>
  <line x1="158" x2="338" y1="340" y2="340" class="net_236,237,238,239,240,241,242,243,244,245,246,247,248,249,250,251"/>
  <line x1="910" x2="925" y1="355" y2="355" class="net_180,181,182,183,184,185,186,187,188,189,190,191,192,193,194,195,196,197,198,199,200,201,202,203,204,205,206,207,208,209,210,211,212,213,214,215,216,217,218,219"/>
  <line x1="925" x2="925" y1="355" y2="12" class="net_180,181,182,183,184,185,186,187,188,189,190,191,192,193,194,195,196,197,198,199,200,201,202,203,204,205,206,207,208,209,210,211,212,213,214,215,216,217,218,219"/>
  <line x1="925" x2="281" y1="12" y2="12" class="net_180,181,182,183,184,185,186,187,188,189,190,191,192,193,194,195,196,197,198,199,200,201,202,203,204,205,206,207,208,209,210,211,212,213,214,215,216,217,218,219"/>
  <line x1="281" x2="281" y1="12" y2="73.5" class="net_180,181,182,183,184,185,186,187,188,189,190,191,192,193,194,195,196,197,198,199,200,201,202,203,204,205,206,207,208,209,210,211,212,213,214,215,216,217,218,219"/>
  <line x1="281" x2="448.5" y1="73.5" y2="73.5" class="net_180,181,182,183,184,185,186,187,188,189,190,191,192,193,194,195,196,197,198,199,200,201,202,203,204,205,206,207,208,209,210,211,212,213,214,215,216,217,218,219"/>
  <line x1="40" x2="127" y1="454" y2="454" class="net_4,5,6,7,8,9,10,11,12,13,14,15,16,17,18,19"/>
  <line x1="40" x2="52" y1="310" y2="310" class="net_20,21,22,23,24,25,26,27,28,29,30,31,32,33,34,35"/>
  <line x1="52" x2="52" y1="310" y2="360" class="net_20,21,22,23,24,25,26,27,28,29,30,31,32,33,34,35"/>
  <line x1="52" x2="127" y1="360" y2="360" class="net_20,21,22,23,24,25,26,27,28,29,30,31,32,33,34,35"/>
  <line x1="369" x2="606" y1="320" y2="320" class="net_252,253,254,255,256,257,258,259,260,261,262,263,264,265,266,267,268,269,270,271,272,273,274,275,276,277,278,279,280,281,282,283"/>
  <line x1="606" x2="606" y1="320" y2="382.5" class="net_252,253,254,255,256,257,258,259,260,261,262,263,264,265,266,267,268,269,270,271,272,273,274,275,276,277,278,279,280,281,282,283"/>
  <line x1="606" x2="681" y1="382.5" y2="382.5" class="net_252,253,254,255,256,257,258,259,260,261,262,263,264,265,266,267,268,269,270,271,272,273,274,275,276,277,278,279,280,281,282,283"/>
  <line x1="712" x2="885" y1="496.5" y2="496.5" class="net_36,37,38,39,40,41,42,43,44,45,46,47,48,49,50,51"/>
  <line x1="712" x2="885" y1="189" y2="189" class="net_52,53,54,55,56,57,58,59,60,61,62,63,64,65,66,67"/>
  <line x1="712" x2="885" y1="76" y2="76" class="net_68,69,70,71,72,73,74,75,76,77,78,79,80,81,82,83,84,85,86,87,88,89,90,91,92,93,94,95,96,97,98,99,100,101,102,103,104,105,106,107"/>
</svg>
