<svg xmlns="http://www.w3.org/2000/svg" xmlns:xlink="http://www.w3.org/1999/xlink" xmlns:s="https://github.com/nturley/netlistsvg" width="681" height="309.5" overflow="visible" viewBox="-20 -20 681 309.5">
  <style>svg {
    fill:none;
  }
  text {
    fill:#cbd5e1;
    stroke:none;
    font-size:11px;
    font-weight:600;
    font-family: "JetBrains Mono","Fira Code","Cascadia Code","SF Mono",Menlo,"Courier New",monospace;
  }
  g[id^="cell_"] rect,
  g[id^="cell_"] circle,
  g[id^="cell_"] path,
  rect[class^="cell_"],
  circle[class^="cell_"],
  path[class^="cell_"] {
    fill:#1e293b;
    stroke:#5ad0ff;
    stroke-width:1.5;
  }
  g[id^="cell_"] rect[class^="cell_"] {
    rx:6;
    ry:6;
  }
  g[id^="cell_"] circle[class^="cell_"] {
    stroke:#5ad0ff;
    stroke-width:1.5;
  }
  text[class*="cell_"] {
    fill:#e2e8f0;
    stroke:none;
    font-size:11px;
    font-family: "JetBrains Mono","Fira Code","Cascadia Code","SF Mono",Menlo,"Courier New",monospace;
    font-weight:600;
  }
  .nodelabel {
    text-anchor: middle;
  }
  .inputPortLabel {
    text-anchor: end;
  }
  .splitjoinBody {
    fill:#5ad0ff;
  }
  line[class^="net_"] {
    stroke:#94a3b8;
    stroke-width:1.4;
    fill:none;
  }
  line[class*=","] {
    stroke:#5ad0ff;
    stroke-width:2.2;
  }
  circle[class^="net_"] {
    fill:#5ad0ff;
    stroke:none;
  }
  g.__veri_in__ > path[class^="cell_"] {
    fill:#0f172a;
    stroke:#5ad0ff;
    stroke-width:1.5;
  }
  g.__veri_out__ > path[class^="cell_"] {
    fill:#0f172a;
    stroke:#f0abfc;
    stroke-width:1.5;
  }</style>
  <g s:type="add" transform="translate(553,222.5)" s:width="25" s:height="25" id="cell_$add$/home/rabin/projects/npu/src/processing_element.v:13$3">
    <s:alias val="$add"/>
    <circle r="12.5" cx="12.5" cy="12.5" class="cell_$add$/home/rabin/projects/npu/src/processing_element.v:13$3"/>
    <line x1="7.5" x2="17.5" y1="12.5" y2="12.5" class="cell_$add$/home/rabin/projects/npu/src/processing_element.v:13$3"/>
    <line x1="12.5" x2="12.5" y1="7.5" y2="17.5" class="cell_$add$/home/rabin/projects/npu/src/processing_element.v:13$3"/>
    <g s:x="3" s:y="5" s:pid="A"/>
    <g s:x="3" s:y="20" s:pid="B"/>
    <g s:x="25" s:y="12.5" s:pid="Y"/>
  </g>
  <g s:type="generic" transform="translate(139,22)" s:width="30" s:height="40" id="cell_$mul$/home/rabin/projects/npu/src/processing_element.v:13$2">
    <text x="15" y="-4" class="nodelabel cell_$mul$/home/rabin/projects/npu/src/processing_element.v:13$2" s:attribute="ref">$mul</text>
    <rect width="30" height="40" s:generic="body" class="cell_$mul$/home/rabin/projects/npu/src/processing_element.v:13$2"/>
    <g transform="translate(0,10)" s:x="0" s:y="10" s:pid="in0" id="port_$mul$/home/rabin/projects/npu/src/processing_element.v:13$2~A">
      <text x="-3" y="-4" class="inputPortLabel cell_$mul$/home/rabin/projects/npu/src/processing_element.v:13$2">A</text>
    </g>
    <g transform="translate(0,30)" s:x="0" s:y="10" s:pid="in0" id="port_$mul$/home/rabin/projects/npu/src/processing_element.v:13$2~B">
      <text x="-3" y="-4" class="inputPortLabel cell_$mul$/home/rabin/projects/npu/src/processing_element.v:13$2">B</text>
    </g>
    <g transform="translate(30,10)" s:x="30" s:y="10" s:pid="out0" id="port_$mul$/home/rabin/projects/npu/src/processing_element.v:13$2~Y">
      <text x="5" y="-4" class="cell_$mul$/home/rabin/projects/npu/src/processing_element.v:13$2">Y</text>
    </g>
  </g>
  <g s:type="generic" transform="translate(297.5,162)" s:width="30" s:height="40" id="cell_$procdff$4">
    <text x="15" y="-4" class="nodelabel cell_$procdff$4" s:attribute="ref">$adff</text>
    <rect width="30" height="60" s:generic="body" class="cell_$procdff$4"/>
    <g transform="translate(0,10)" s:x="0" s:y="10" s:pid="in0" id="port_$procdff$4~ARST">
      <text x="-3" y="-4" class="inputPortLabel cell_$procdff$4">ARST</text>
    </g>
    <g transform="translate(0,30)" s:x="0" s:y="10" s:pid="in0" id="port_$procdff$4~CLK">
      <text x="-3" y="-4" class="inputPortLabel cell_$procdff$4">CLK</text>
    </g>
    <g transform="translate(0,50)" s:x="0" s:y="10" s:pid="in0" id="port_$procdff$4~D">
      <text x="-3" y="-4" class="inputPortLabel cell_$procdff$4">D</text>
    </g>
    <g transform="translate(30,10)" s:x="30" s:y="10" s:pid="out0" id="port_$procdff$4~Q">
      <text x="5" y="-4" class="cell_$procdff$4">Q</text>
    </g>
  </g>
  <g s:type="inputExt" class="__veri_in__" transform="translate(12,232.5)" s:width="30" s:height="20" id="cell_clk">
    <text x="15" y="-4" class="nodelabel cell_clk" s:attribute="ref">clk</text>
    <s:alias val="$_inputExt_"/>
    <path d="M0,0 L0,20 L15,20 L30,10 L15,0 Z" class="cell_clk"/>
    <g s:x="28" s:y="10" s:pid="Y"/>
  </g>
  <g s:type="inputExt" class="__veri_in__" transform="translate(12,162.5)" s:width="30" s:height="20" id="cell_rst">
    <text x="15" y="-4" class="nodelabel cell_rst" s:attribute="ref">rst</text>
    <s:alias val="$_inputExt_"/>
    <path d="M0,0 L0,20 L15,20 L30,10 L15,0 Z" class="cell_rst"/>
    <g s:x="28" s:y="10" s:pid="Y"/>
  </g>
  <g s:type="inputExt" class="__veri_in__" transform="translate(12,22.5)" s:width="30" s:height="20" id="cell_weight">
    <text x="15" y="-4" class="nodelabel cell_weight" s:attribute="ref">weight</text>
    <s:alias val="$_inputExt_"/>
    <path d="M0,0 L0,20 L15,20 L30,10 L15,0 Z" class="cell_weight"/>
    <g s:x="28" s:y="10" s:pid="Y"/>
  </g>
  <g s:type="inputExt" class="__veri_in__" transform="translate(12,92.5)" s:width="30" s:height="20" id="cell_activation">
    <text x="15" y="-4" class="nodelabel cell_activation" s:attribute="ref">activation</text>
    <s:alias val="$_inputExt_"/>
    <path d="M0,0 L0,20 L15,20 L30,10 L15,0 Z" class="cell_activation"/>
    <g s:x="28" s:y="10" s:pid="Y"/>
  </g>
  <g s:type="outputExt" class="__veri_out__" transform="translate(553,162.5)" s:width="30" s:height="20" id="cell_accumulator">
    <text x="15" y="-4" class="nodelabel cell_accumulator" s:attribute="ref">accumulator</text>
    <s:alias val="$_outputExt_"/>
    <path d="M30,0 L30,20 L15,20 L0,10 L15,0 Z" class="cell_accumulator"/>
    <g s:x="0" s:y="10" s:pid="A"/>
  </g>
  <line x1="328.5" x2="513" y1="172.5" y2="172.5" class="net_20,21,22,23,24,25,26,27,28,29,30,31,32,33,34,35"/>
  <line x1="513" x2="513" y1="172.5" y2="227.5" class="net_20,21,22,23,24,25,26,27,28,29,30,31,32,33,34,35"/>
  <circle cx="513" cy="172.5" r="2" class="net_20,21,22,23,24,25,26,27,28,29,30,31,32,33,34,35"/>
  <line x1="513" x2="556" y1="227.5" y2="227.5" class="net_20,21,22,23,24,25,26,27,28,29,30,31,32,33,34,35"/>
  <line x1="328.5" x2="553" y1="172.5" y2="172.5" class="net_20,21,22,23,24,25,26,27,28,29,30,31,32,33,34,35"/>
  <line x1="170" x2="503" y1="32.5" y2="32.5" class="net_36,37,38,39,40,41,42,43,44,45,46,47,48,49,50,51"/>
  <line x1="503" x2="503" y1="32.5" y2="242.5" class="net_36,37,38,39,40,41,42,43,44,45,46,47,48,49,50,51"/>
  <line x1="503" x2="556" y1="242.5" y2="242.5" class="net_36,37,38,39,40,41,42,43,44,45,46,47,48,49,50,51"/>
  <line x1="40" x2="139" y1="32.5" y2="32.5" class="net_4,5,6,7,8,9,10,11"/>
  <line x1="40" x2="82" y1="102.5" y2="102.5" class="net_12,13,14,15,16,17,18,19"/>
  <line x1="82" x2="82" y1="102.5" y2="52.5" class="net_12,13,14,15,16,17,18,19"/>
  <line x1="82" x2="139" y1="52.5" y2="52.5" class="net_12,13,14,15,16,17,18,19"/>
  <line x1="40" x2="297.5" y1="172.5" y2="172.5" class="net_3"/>
  <line x1="40" x2="82" y1="242.5" y2="242.5" class="net_2"/>
  <line x1="82" x2="82" y1="242.5" y2="192.5" class="net_2"/>
  <line x1="82" x2="297.5" y1="192.5" y2="192.5" class="net_2"/>
  <line x1="578" x2="629" y1="235" y2="235" class="net_52,53,54,55,56,57,58,59,60,61,62,63,64,65,66,67"/>
  <line x1="629" x2="629" y1="235" y2="257.5" class="net_52,53,54,55,56,57,58,59,60,61,62,63,64,65,66,67"/>
  <line x1="629" x2="92" y1="257.5" y2="257.5" class="net_52,53,54,55,56,57,58,59,60,61,62,63,64,65,66,67"/>
  <line x1="92" x2="92" y1="257.5" y2="212.5" class="net_52,53,54,55,56,57,58,59,60,61,62,63,64,65,66,67"/>
  <line x1="92" x2="297.5" y1="212.5" y2="212.5" class="net_52,53,54,55,56,57,58,59,60,61,62,63,64,65,66,67"/>
</svg>
